<?xml version="1.0" encoding="utf-8"?><svg xmlns="http://www.w3.org/2000/svg" xmlns:xlink="http://www.w3.org/1999/xlink"><symbol viewBox="0 0 23 16" id="arrow-left" xmlns="http://www.w3.org/2000/svg"><path d="M1.008 7.293a1 1 0 0 0 0 1.414l6.364 6.364a1 1 0 0 0 1.414-1.414L3.129 8l5.657-5.657A1 1 0 1 0 7.372.93L1.008 7.293ZM22.286 7H1.715v2h20.571V7Z"/></symbol><symbol viewBox="0 0 22 16" id="arrow-right" xmlns="http://www.w3.org/2000/svg"><path d="M21.366 7.293a1 1 0 0 1 0 1.414l-6.364 6.364a1 1 0 0 1-1.414-1.414L19.245 8l-5.657-5.657A1 1 0 0 1 15.002.93l6.364 6.364ZM.088 7h20.571v2H.088V7Z"/></symbol><symbol viewBox="0 0 14 15" id="arrow-up" xmlns="http://www.w3.org/2000/svg"><path d="M6.895 2.25v12m0-12-6 5.66m6-5.66 6 5.66"/></symbol><symbol viewBox="0 0 22 24" id="basket" xmlns="http://www.w3.org/2000/svg"><g clip-path="url(#ada)"><path d="M10.363 18.443a2.046 2.046 0 0 0-2.045 2.042 2.046 2.046 0 0 0 4.09 0 2.046 2.046 0 0 0-2.045-2.042Zm6.134 0a2.046 2.046 0 0 0-2.045 2.042 2.046 2.046 0 0 0 4.089 0 2.046 2.046 0 0 0-2.044-2.042Zm3.978-8.199L7.413 6.891a.614.614 0 0 0-.75.73L8.67 16.4h-.786L5.482 5.895a.613.613 0 0 0-.474-.464l-4.27-.882A.614.614 0 0 0 .489 5.75l3.885.802L6.797 17.15a.613.613 0 0 0 .598.477h12.07a.615.615 0 0 0 .607-.53l.858-6.175a.613.613 0 0 0-.455-.678Zm-8.14 3.91a.613.613 0 0 1-1.227 0v-2.696a.613.613 0 0 1 1.227 0v2.696Zm2.625 0a.613.613 0 0 1-1.227 0v-1.88a.613.613 0 0 1 1.227 0v1.88Zm2.625 0a.613.613 0 0 1-1.227 0v-1.226a.613.613 0 0 1 1.227 0v1.226Z"/></g><path fill-rule="evenodd" clip-rule="evenodd" d="M16.268 4.568a2.996 2.996 0 0 0-1.693-.523c-.627 0-1.21.193-1.693.523-.28-.843-.492-1.752-.492-2.383C12.39.98 13.37 0 14.575 0s2.185.98 2.185 2.185c0 .631-.212 1.54-.492 2.383Zm-4.722 2.274.024.006v-.011l-.024.005Zm4.972 1.217c-1.333-.33-2.766-.681-4.129-1.013a2.185 2.185 0 1 1 4.129 1.013Zm4.436 1.103c-.866-.217-2.155-.538-3.618-.9a2.995 2.995 0 0 0 .243-1.425c.87.18 1.762.45 2.308.765.596.344.969.928 1.067 1.56ZM9.869 6.439c-.36-.086-.706-.167-1.03-.243a2.19 2.19 0 0 1-.376-2.667 2.188 2.188 0 0 1 3.147-.7c.098.738.338 1.599.61 2.353a3.01 3.01 0 0 0-.449.774c-.628.113-1.305.278-1.902.483Zm10.124.075a3.43 3.43 0 0 1-.217.114c-.696-.295-1.587-.526-2.397-.672a3.01 3.01 0 0 0-.449-.774c.262-.727.494-1.553.599-2.273.095-.067.189-.128.278-.18a2.188 2.188 0 0 1 2.986.8 2.188 2.188 0 0 1-.8 2.985Z"/><defs><clipPath id="ada"><path transform="translate(0 3.064)" d="M0 0h20.936v20.936H0z"/></clipPath></defs></symbol><symbol viewBox="0 0 32 32" id="calculator-money" xmlns="http://www.w3.org/2000/svg"><g clip-path="url(#aea)"><path d="M16 17.333c0 2.21-3.581 4-8 4-4.419 0-8-1.79-8-4 0-2.209 3.581-4 8-4 4.419 0 8 1.791 8 4Zm0 7.334v2.666C16 29.993 12.561 32 8 32s-8-2.007-8-4.667v-2.666c0 2.628 3.333 4.666 8 4.666s8-2.038 8-4.666Zm0-5.334V22c0 2.66-3.439 4.667-8 4.667S0 24.66 0 22v-2.667C0 21.961 3.333 24 8 24s8-2.039 8-4.667ZM24 8H13.333v2.667H24V8Zm1.333-8H12a6.674 6.674 0 0 0-6.667 6.667v4.185A18.767 18.767 0 0 1 8 10.667c.93 0 1.823.064 2.667.185V8a2.67 2.67 0 0 1 2.666-2.667H24A2.67 2.67 0 0 1 26.667 8v2.667A2.67 2.67 0 0 1 24 13.333h-7.292c.873.766 1.483 1.667 1.77 2.667h1.52c.738 0 1.334.597 1.334 1.333v1.334c0 .736-.596 1.333-1.333 1.333h-1.334v2.667h6.667a1.333 1.333 0 1 1 0 2.666h-6.667v2c0 1.82-.822 3.426-2.249 4.667h8.916a6.674 6.674 0 0 0 6.667-6.667V6.667A6.673 6.673 0 0 0 25.333 0Zm1.334 18.667a1.333 1.333 0 1 1-2.667 0v-1.334a1.333 1.333 0 1 1 2.667 0v1.334Z"/></g><defs><clipPath id="aea"><path d="M0 0h32v32H0z"/></clipPath></defs></symbol><symbol viewBox="0 0 32 32" id="calendar-clock" xmlns="http://www.w3.org/2000/svg"><g clip-path="url(#afa)"><path d="M32 9.333v1.334H0V9.333a6.667 6.667 0 0 1 6.667-6.666H8V1.333a1.334 1.334 0 0 1 2.667 0v1.334h10.666V1.333a1.334 1.334 0 0 1 2.667 0v1.334h1.333A6.667 6.667 0 0 1 32 9.333Zm0 13.334C32 27.813 27.812 32 22.667 32c-5.146 0-9.334-4.187-9.334-9.333 0-5.147 4.188-9.334 9.334-9.334 5.145 0 9.333 4.187 9.333 9.334Zm-6.667.781L24 22.115V20a1.334 1.334 0 0 0-2.667 0v2.667c0 .353.14.693.391.942l1.724 1.724a1.334 1.334 0 0 0 1.885-1.885Zm-14.666-.781c0-3.772 1.744-7.134 4.465-9.334H0v12A6.667 6.667 0 0 0 6.667 32h8.465a11.973 11.973 0 0 1-4.465-9.333Z"/></g><defs><clipPath id="afa"><path d="M0 0h32v32H0z"/></clipPath></defs></symbol><symbol viewBox="0 0 24 24" id="callBack" xmlns="http://www.w3.org/2000/svg"><path fill-rule="evenodd" clip-rule="evenodd" d="m5.196 2.054-.26.055-.239.097-.24.096-.22.131-.22.132-.25.23-.249.232-.265.355-.266.354-.153.274-.154.273-.143.334-.142.334-.096.33-.095.33-.062.313-.062.313-.04.404-.04.405v.832l.06.524.058.525.097.472.097.47.112.392.112.39.147.41.147.41.174.408.173.406.217.433.217.434.177.312.178.313.365.56.366.561.24.318.24.319.271.332.27.332.5.547.5.547.384.353.384.353.37.313.371.313.235.181.234.181.185.05.186.05.185-.05.184-.05.123-.093.122-.093.073-.149.074-.148v-.235l-.002-.234-.077-.13-.077-.13-.527-.431-.527-.431-.541-.51-.54-.512-.45-.51-.448-.51-.383-.508-.382-.508-.29-.45-.29-.449-.205-.36-.204-.36-.227-.48-.226-.48-.159-.41-.159-.41-.14-.465-.14-.464-.094-.473-.094-.473-.042-.427-.042-.427v-.685l.058-.447.059-.447.098-.339.098-.339.101-.242.101-.241.182-.308.181-.307.192-.22.192-.22.14-.104.14-.104.254-.086.254-.086.265.022.265.021.222.102.222.102.333.342.332.341.254.322.254.322.203.334.204.333.08.216.08.215.046.264.045.265-.066.268-.066.269-.127.213-.126.213-.92.94-.919.94-.052.186-.051.185.026.166.026.167.219.41.218.41.365.558.365.558.302.399.301.4.396.468.397.469.659.66.66.66.468.396.468.396.4.302.399.302.557.366.558.365.41.218.41.218.166.027.166.026.185-.052.185-.052.94-.92.94-.92.212-.126.213-.126.269-.067.268-.066.265.045.264.046.215.08.215.08.334.204.334.204.321.254.322.254.34.332.342.333.109.234.108.233.001.333.001.332-.122.257-.122.258-.17.166-.172.166-.236.17-.237.17-.31.16-.31.159-.36.116-.361.116-.342.06-.342.06-.488.023-.488.023-.43-.046-.43-.046-.473-.095-.474-.095-.463-.14-.463-.14-.508-.202-.508-.203h-.238l-.238.002-.157.104-.157.104-.093.149-.093.15v.507l.093.15.093.148.141.091.142.092.573.219.574.219.539.154.54.154.395.08.396.08.502.058.502.059h.831l.405-.04.404-.042.39-.078.391-.077.254-.082.254-.081.331-.14.332-.14.274-.156.273-.156.293-.213.293-.214.292-.297.293-.296.131-.223.131-.224.096-.238.097-.239.06-.319.061-.32-.022-.374-.023-.374-.12-.373-.119-.374-.2-.307-.199-.307-.317-.307-.318-.308-.39-.32-.39-.322-.293-.195-.293-.195-.215-.12-.215-.122-.292-.118-.293-.117-.293-.07-.293-.069-.43.002h-.429l-.269.067-.27.066-.322.151-.322.152-.293.216-.293.217-.628.613-.628.612-.284-.167-.283-.167-.449-.311-.449-.311-.312-.244-.313-.244-.488-.43-.488-.43-.45-.464-.451-.464-.35-.41-.35-.41-.236-.313-.236-.312-.255-.371-.256-.372-.167-.283-.167-.284.613-.628.612-.629.217-.293.216-.293.151-.322.151-.323.066-.27.067-.269v-.43l.002-.43-.07-.292-.069-.293-.117-.293-.117-.293-.121-.215-.122-.215-.194-.293-.195-.293-.321-.39-.321-.391-.307-.318-.307-.317-.307-.2-.307-.2-.376-.12-.377-.122-.43-.015L5.456 2l-.259.054Zm6.93.86-.2.102-.106.16-.107.161-.018.22-.019.219.094.175.095.176.16.114.162.113.636.05.636.05.176.026.176.027.39.095.39.095.313.111.312.112.332.153.332.154.321.2.32.199.32.243.318.243.36.36.36.36.243.319.243.319.198.32.198.32.154.333.154.333.114.311.114.311.095.412.094.412.026.156.026.156.048.636.048.636.114.162.114.162.176.094.176.094.219-.018.219-.02.161-.106.161-.107.104-.212.104-.213-.026-.514-.026-.514-.06-.411-.06-.411-.114-.455-.114-.456-.163-.435-.162-.435-.223-.44-.223-.442-.257-.388-.257-.387-.218-.274-.219-.273-.399-.405-.4-.406-.312-.252-.312-.252-.39-.26-.39-.258-.489-.243-.488-.242-.375-.138-.375-.139-.464-.117-.465-.116-.43-.063-.429-.063-.507-.02-.508-.022-.2.103Zm1.802 3.511-.117.046-.087.05-.087.05-.096.165-.095.165-.026.14-.026.14.047.172.046.172.162.16.162.161.273.09.273.09.215.107.215.107.248.186.247.186.19.228.189.227.135.245.135.245.104.293.104.293.063.097.063.097.08.068.082.068.164.065.164.064.172-.026.173-.026.174-.11.173-.11.07-.148.07-.147.02-.151.02-.15-.067-.243-.068-.242-.15-.344-.148-.344-.188-.283-.188-.283-.313-.329-.313-.328-.308-.23-.308-.23-.316-.152-.317-.153-.308-.1-.307-.1-.142.003-.141.003-.117.046Z"/></symbol><symbol viewBox="0 0 33 32" id="categories-1" xmlns="http://www.w3.org/2000/svg"><g clip-path="url(#aha)"><path d="M28.513 0H3.846A3.67 3.67 0 0 0 .18 3.667v18a3.67 3.67 0 0 0 3.666 3.666h1.667V31a1.001 1.001 0 0 0 1.707.707l6.373-6.374h14.92a3.67 3.67 0 0 0 3.667-3.666v-18A3.67 3.67 0 0 0 28.513 0ZM18.9 18.521c0 .814-.667 1.48-1.494 1.48h-2.453c-.72 0-1.493-.533-1.493-1.72v-.72h5.44v.96Zm1.08-3.946c-.56.453-.92 1.04-1.04 1.653h-5.507c-.093-.6-.427-1.16-.973-1.587a5.894 5.894 0 0 1-2.28-4.8c.066-3.173 2.72-5.8 5.906-5.84a5.924 5.924 0 0 1 4.32 1.734A5.867 5.867 0 0 1 22.18 9.96c0 1.8-.799 3.48-2.2 4.614Z"/></g><defs><clipPath id="aha"><path transform="translate(.18)" d="M0 0h32v32H0z"/></clipPath></defs></symbol><symbol viewBox="0 0 33 32" id="categories-2" xmlns="http://www.w3.org/2000/svg"><path d="M24.846 0H7.513C3.469 0 .18 3.29.18 7.333v17.334C.18 28.71 3.469 32 7.513 32h17.333c4.044 0 7.334-3.29 7.334-7.333V7.333C32.18 3.29 28.89 0 24.846 0Zm-.908 14.968c.044.344.075.688.075 1.032 0 .343-.03.684-.075 1.012a.666.666 0 0 0 .25.613l2.32 1.819-2.183 3.772-2.732-1.099a.66.66 0 0 0-.659.092 7.997 7.997 0 0 1-1.762 1.031.665.665 0 0 0-.398.52l-.328 2.907h-4.454l-.407-2.891a.664.664 0 0 0-.403-.521 7.68 7.68 0 0 1-1.758-1.028.661.661 0 0 0-.658-.094l-2.732 1.1-2.182-3.773 2.32-1.819a.67.67 0 0 0 .25-.61A7.871 7.871 0 0 1 8.346 16c0-.343.031-.684.075-1.012a.666.666 0 0 0-.25-.613l-2.32-1.82 2.183-3.771 2.732 1.099c.22.088.47.053.66-.092a8 8 0 0 1 1.762-1.031.665.665 0 0 0 .397-.52l.328-2.907h4.455l.407 2.89a.663.663 0 0 0 .402.522 7.644 7.644 0 0 1 1.759 1.028c.188.147.44.182.659.092l2.732-1.098 2.182 3.772-2.32 1.818a.67.67 0 0 0-.25.611Z"/></symbol><symbol viewBox="0 0 33 32" id="categories-3" xmlns="http://www.w3.org/2000/svg"><g clip-path="url(#aja)"><path d="m16.18 0-12 4.571V16c0 9.143 4.8 12.571 12 16 7.2-3.429 12-6.857 12-16V4.571L16.18 0Zm-2 22-6-6 3-3 3.086 3.086 6.5-6.5L23.68 12.5l-9.5 9.5Z"/></g><defs><clipPath id="aja"><path transform="translate(.18)" d="M0 0h32v32H0z"/></clipPath></defs></symbol><symbol viewBox="0 0 33 32" id="categories-4" xmlns="http://www.w3.org/2000/svg"><g clip-path="url(#aka)"><path d="M10.84 0c.888.891 1.773 1.763 2.642 2.618.889.875 1.802 1.775 2.704 2.681L21.53 0H10.84ZM.18 9.884v11.425a689.74 689.74 0 0 0 2.623-1.844 353.544 353.544 0 0 1 5.533-3.85v-.019L.18 9.884Zm.801-1.728 7.355 5.151v-5.15H.981Zm2.903 12.841A498.48 498.48 0 0 1 .18 23.593v.002l8.156 5.712V17.885a428.115 428.115 0 0 0-4.452 3.112ZM28.167 3.954A254.084 254.084 0 0 1 24.207 0h-.013l-6.336 6.281h12.66a416.771 416.771 0 0 0-2.351-2.327Zm-16 0A261.85 261.85 0 0 1 8.207 0h-.013L1.858 6.281h12.66a416.778 416.778 0 0 0-2.351-2.327ZM.18 25.884V32h8.156v-.404L.18 25.884ZM24.023 8.156v5.137l7.334-5.137h-7.334ZM26.84 0c.888.891 1.773 1.763 2.642 2.618.887.873 1.798 1.77 2.698 2.675V0h-5.34Zm-2.817 31.582V32h8.157v-6.13l-8.157 5.712ZM.18 0v5.305L5.53 0H.18Zm23.843 15.582v.046a350.851 350.851 0 0 1 5.513 3.837 682.66 682.66 0 0 0 2.644 1.858V9.87l-8.157 5.713Zm4.433 5.415a432.154 432.154 0 0 0-4.433-3.098v11.394l8.137-5.7a496.962 496.962 0 0 1-3.704-2.596Z"/></g><defs><clipPath id="aka"><path transform="translate(.18)" d="M0 0h32v32H0z"/></clipPath></defs></symbol><symbol viewBox="0 0 33 32" id="categories-5" xmlns="http://www.w3.org/2000/svg"><g clip-path="url(#ala)"><path d="M13.626 13.035c0-4.532 2.943-8.388 7.016-9.753a11.095 11.095 0 0 0-5.744-1.657c-2.972-.023-6.71 1.117-8.821 3.21A11.01 11.01 0 0 0 2.8 12.707c0 .737-.183 1.47-.528 2.121l-1.874 3.54a1.838 1.838 0 0 0 .04 1.807c.33.56.914.901 1.562.913h.797v2.833a3.075 3.075 0 0 0 3.07 3.073h1.995v.828a2.555 2.555 0 0 0 2.551 2.554h9.706a2.555 2.555 0 0 0 2.551-2.554v-1.835c0-.91.07-1.819.208-2.72-5.187-.513-9.252-4.906-9.252-10.231Z"/><path d="M23.783 4.63c-4.637 0-8.396 3.763-8.396 8.407 0 4.643 3.759 8.407 8.396 8.407 4.637 0 8.397-3.764 8.397-8.407 0-4.644-3.76-8.408-8.397-8.408Zm.938 13.341a.938.938 0 0 1-1.875 0v-.975a.938.938 0 0 1 1.875 0v.975Zm.297-4.146a.49.49 0 0 0-.297.463.938.938 0 0 1-1.875 0c0-.979.602-1.868 1.5-2.213a1.566 1.566 0 0 0 1.003-1.58 1.586 1.586 0 0 0-1.483-1.453 1.554 1.554 0 0 0-1.193.457.938.938 0 0 1-1.326-1.326 3.443 3.443 0 0 1 5.872 2.19 3.43 3.43 0 0 1-2.2 3.463Z"/></g><defs><clipPath id="ala"><path transform="translate(.18)" d="M0 0h32v32H0z"/></clipPath></defs></symbol><symbol viewBox="0 0 33 32" id="categories-6" xmlns="http://www.w3.org/2000/svg"><path d="M14.965 11.994h2.463c.557 0 .72.538 1.003 1.036l.174.306h3.219c.851 0 1.537.708 1.537 1.587v7.076c0 .88-.686 1.587-1.537 1.587H10.569c-.85 0-1.536-.707-1.536-1.587v-7.076c0-.879.686-1.587 1.536-1.587h3.22l.174-.306c.283-.498.447-1.036 1.002-1.036ZM5.063 4.17c-1.404 0-2.535.94-2.535 2.11v19.815c0 1.17 1.131 2.11 2.535 2.11h22.27c1.404 0 2.532-1.01 2.532-2.11V9.335c0-1.168-1.13-2.109-2.534-2.109H14.587l-1.155-2.448a1.056 1.056 0 0 0-.958-.609h-7.41Z"/><path d="M16.196 15.69a2.771 2.771 0 0 0 0 5.542 2.77 2.77 0 0 0 2.769-2.771 2.77 2.77 0 0 0-2.769-2.772Z"/></symbol><symbol viewBox="0 0 15 15" id="categories-btn" xmlns="http://www.w3.org/2000/svg"><path d="M.68 1.5a1 1 0 0 1 1-1h4a1 1 0 0 1 1 1v4a1 1 0 0 1-1 1h-4a1 1 0 0 1-1-1v-4Zm8 0a1 1 0 0 1 1-1h4a1 1 0 0 1 1 1v4a1 1 0 0 1-1 1h-4a1 1 0 0 1-1-1v-4Zm-8 8a1 1 0 0 1 1-1h4a1 1 0 0 1 1 1v4a1 1 0 0 1-1 1h-4a1 1 0 0 1-1-1v-4Zm8 0a1 1 0 0 1 1-1h4a1 1 0 0 1 1 1v4a1 1 0 0 1-1 1h-4a1 1 0 0 1-1-1v-4Z"/></symbol><symbol viewBox="0 0 344.96 344.96" id="check" xmlns="http://www.w3.org/2000/svg"><g data-name="Слой 2"><path class="aocls-1" d="m321.85 86.24-40-23.11-23.1-40H212.5L172.48 0l-40 23.11H86.24l-23.11 40-40 23.1v46.21L0 172.48l23.11 40v46.21l40 23.11 23.11 40h46.21l40 23.1 40-23.11h46.21l23.11-40 40-23.11V212.5l23.11-40-23.11-40V86.24ZM156.91 243.07a16.79 16.79 0 0 1-23.34 0l-50.45-50.44a16.19 16.19 0 0 1 0-22.89l13.35-13.35a16.19 16.19 0 0 1 22.89 0l25.87 25.87 80.34-80.35a16.19 16.19 0 0 1 22.89 0l13.35 13.35a16.19 16.19 0 0 1 0 22.89Z" data-name="Capa 1"/></g></symbol><symbol viewBox="0 0 24 24" id="chevron-back" xmlns="http://www.w3.org/2000/svg"><path fill-rule="evenodd" clip-rule="evenodd" d="M15.19 17.673a1 1 0 0 0 0-1.414L10.932 12l4.258-4.258a1 1 0 0 0-1.414-1.415L8.81 11.293a1 1 0 0 0 0 1.414l4.966 4.966a1 1 0 0 0 1.414 0Z"/></symbol><symbol viewBox="0 0 11 6" id="chevron-down" xmlns="http://www.w3.org/2000/svg"><path d="m1 1 3.836 3.41a1 1 0 0 0 1.328 0L10 1"/></symbol><symbol viewBox="0 0 13 20" id="chevron-right" xmlns="http://www.w3.org/2000/svg"><path d="m2 18 8-8-8-8"/></symbol><symbol stroke-width="2" stroke-linecap="round" stroke-linejoin="round" viewBox="0 0 24 24" id="clock" xmlns="http://www.w3.org/2000/svg"><circle cx="12" cy="12" r="10"/><path d="M12 6v6l4 2"/></symbol><symbol viewBox="0 0 20 20" id="close" xmlns="http://www.w3.org/2000/svg"><path d="m11.167 10 5.25-5.25a.806.806 0 0 0 0-1.167.806.806 0 0 0-1.167 0L10 8.833l-5.25-5.25a.806.806 0 0 0-1.167 0 .806.806 0 0 0 0 1.167L8.833 10l-5.25 5.25a.757.757 0 0 0-.25.583c0 .5.334.834.834.834.25 0 .416-.084.583-.25l5.25-5.25 5.25 5.25c.167.166.333.25.583.25a.76.76 0 0 0 .584-.25.806.806 0 0 0 0-1.167L11.167 10Z"/></symbol><symbol viewBox="0 0 8 8" id="cross" xmlns="http://www.w3.org/2000/svg"><path d="M7.814.186a.636.636 0 0 0-.899 0L4 3.101 1.085.186a.636.636 0 0 0-.899.899L3.101 4 .186 6.915a.636.636 0 0 0 .899.899L4 4.899l2.915 2.915a.636.636 0 0 0 .899-.899L4.899 4l2.915-2.915a.636.636 0 0 0 0-.899Z"/></symbol><symbol viewBox="0 0 37 36" id="empty" xmlns="http://www.w3.org/2000/svg"><g clip-path="url(#ava)"><path d="m35.864 9.644-2.865-4.757-14.5-4.833L4.002 4.887 1.163 9.596a4.518 4.518 0 0 0-.365 3.91 4.517 4.517 0 0 0 2.7 2.69L3.486 30.96l15 5 15-5 .012-14.765a4.474 4.474 0 0 0 2.729-2.683 4.472 4.472 0 0 0-.363-3.872v.003Zm-8.606-3.507-8.746 2.919-8.75-2.927L18.5 3.216l8.758 2.92ZM3.734 11.142l1.938-3.217 10.572 3.535-2.294 3.823a1.511 1.511 0 0 1-1.76.652l-7.62-2.54a1.535 1.535 0 0 1-.96-.927 1.534 1.534 0 0 1 .124-1.326Zm2.764 6.057 4.745 1.581a4.475 4.475 0 0 0 5.281-1.953l.474-.789-.007 16.265-10.5-3.5.009-11.602-.002-.002ZM19.99 32.301l.008-16.274.478.799a4.467 4.467 0 0 0 3.842 2.188c.478 0 .964-.076 1.44-.235l4.741-1.58L30.49 28.8l-10.5 3.501Zm13.425-19.824a1.484 1.484 0 0 1-.928.899l-7.677 2.559a1.51 1.51 0 0 1-1.76-.652l-2.29-3.813 10.577-3.53 1.957 3.251c.234.39.28.86.12 1.287Z"/></g><defs><clipPath id="ava"><path transform="translate(.5)" d="M0 0h36v36H0z"/></clipPath></defs></symbol><symbol viewBox="0 0 32 32" xml:space="preserve" id="eye" xmlns="http://www.w3.org/2000/svg"><path d="M16 7C9.934 7 4.798 10.776 3 16c1.798 5.224 6.934 9 13 9s11.202-3.776 13-9c-1.798-5.224-6.934-9-13-9z"/><circle cx="16" cy="16" r="5"/></symbol><symbol viewBox="0 0 24 24" id="fb" xmlns="http://www.w3.org/2000/svg"><path d="M13.397 20.997v-8.196h2.765l.411-3.209h-3.176V7.548c0-.926.258-1.56 1.587-1.56h1.684v-2.86A22.108 22.108 0 0 0 14.201 3c-2.444 0-4.122 1.492-4.122 4.231v2.355H7.332v3.21h2.753v8.201h3.312Z"/></symbol><symbol viewBox="0 0 16 16" id="geo-tag" xmlns="http://www.w3.org/2000/svg"><g clip-path="url(#aya)"><path d="M7.772.004c-3.179.112-5.82 2.592-6.124 5.757a6.421 6.421 0 0 0 .557 3.3c.64 1.516 2.12 4.052 5.44 6.811.203.17.501.17.708 0 3.32-2.756 4.8-5.291 5.442-6.814.187-.4.332-.823.43-1.266.03-.128.043-.2.043-.2A6.38 6.38 0 0 0 7.773.004ZM8 9.557a3.1 3.1 0 1 1-.001-6.2 3.1 3.1 0 0 1 0 6.2Z"/></g><defs><clipPath id="aya"><path d="M0 0h16v16H0z"/></clipPath></defs></symbol><symbol viewBox="0 0 32 32" id="headerBlock-1" xmlns="http://www.w3.org/2000/svg"><path d="m28.085 7.234-.62-1.602L21.517.027l-8.373 3.806-.482 3.37h4.575l.256-1.08 1.825.432-.599 2.523h-6.325l-.045.314 2.515 3.353h5.53v2.668a9.251 9.251 0 0 1 3.503 4.972l-1.804.51a7.338 7.338 0 0 0-7.037-5.317 7.338 7.338 0 0 0-7.037 5.318l-1.804-.51a9.237 9.237 0 0 1 2.156-3.796 9.78 9.78 0 0 0-5.307-1.554H0v16.918l5.484-1.605a30.942 30.942 0 0 0 21.346-.572l5.17-2.06v-.635c0-6.838-1.17-12.774-3.915-19.848Z"/></symbol><symbol viewBox="0 0 33 32" id="headerBlock-2" xmlns="http://www.w3.org/2000/svg"><g clip-path="url(#baa)"><path d="M8.966 10.04a2.196 2.196 0 1 0 0-4.393 2.196 2.196 0 0 0 0 4.392Zm10.039-3.452h6.588v-.39L19.395 0h-.39v6.588Z"/><path d="M19.005 29.176h-.941v-3.078a3.513 3.513 0 0 1 3.51-3.51h.39v-.004a28.039 28.039 0 0 0-1.307-6.161 5.195 5.195 0 0 1-.267-1.646v-.16a5.21 5.21 0 0 1 5.203-5.205V8.47h-8.47V0h-16v32h17.882v-2.824ZM8.965 3.765a4.083 4.083 0 0 1 4.08 4.078 4.083 4.083 0 0 1-4.08 4.079 4.083 4.083 0 0 1-4.077-4.079 4.083 4.083 0 0 1 4.078-4.078ZM4.889 14.118h13.176V16H4.888v-1.882Zm0 3.764h13.176v1.883H4.888v-1.883Zm8.784 9.412H4.888v-1.882h8.784v1.882Zm1.569-3.765H4.888v-1.882H15.24v1.882Z"/><path d="M22.272 14.616v.161c0 .358.058.711.17 1.05a29.922 29.922 0 0 1 1.413 6.761h3.479a29.923 29.923 0 0 1 1.412-6.76c.114-.34.17-.693.17-1.05v-.162a3.326 3.326 0 0 0-3.322-3.322 3.326 3.326 0 0 0-3.322 3.322Zm-2.326 11.482v1.196H31.24v-1.196c0-.897-.73-1.627-1.627-1.627h-8.04c-.897 0-1.627.73-1.627 1.627Zm.942 3.079h9.411V32h-9.411v-2.823Z"/></g><defs><clipPath id="baa"><path transform="translate(.182)" d="M0 0h32v32H0z"/></clipPath></defs></symbol><symbol viewBox="0 0 33 32" id="headerBlock-3" xmlns="http://www.w3.org/2000/svg"><g clip-path="url(#bba)"><path d="M31.164.099a.94.94 0 0 0-1.259.418l-8.557 17.13-1.676-.84a2.818 2.818 0 0 0-3.775 1.256l-.42.838 10.06 5.038.42-.838a2.812 2.812 0 0 0-1.256-3.774l-1.676-.84 8.558-17.13A.94.94 0 0 0 31.163.1ZM10.994 32a.937.937 0 1 0 0-1.875.937.937 0 0 0 0 1.875ZM1.62 26.375a.937.937 0 1 0 0-1.875.937.937 0 0 0 0 1.875Zm3.75 1.875a.937.937 0 1 0 0-1.875.937.937 0 0 0 0 1.875Zm1.874 1.875h-3.75a.938.938 0 0 1-.937-.938.937.937 0 1 0-1.875 0A2.816 2.816 0 0 0 3.494 32h3.75a.937.937 0 1 0 0-1.875Zm-.273-5.87a.937.937 0 0 0-.304 1.768l4.48 2.244a4.655 4.655 0 0 0 2.574.473.94.94 0 0 0 .49 1.062l4.192 2.1a.94.94 0 0 0 1.043-.138c.146-.13 3.34-3.004 5.206-6.17l-10.1-5.059c-2.263 3.007-7.523 3.712-7.58 3.72Z"/></g><defs><clipPath id="bba"><path transform="translate(.182)" d="M0 0h32v32H0z"/></clipPath></defs></symbol><symbol viewBox="0 0 24 24" id="instagram" xmlns="http://www.w3.org/2000/svg"><path d="M11.999 7.377a4.624 4.624 0 1 0 0 9.248 4.624 4.624 0 0 0 0-9.248Zm0 7.627a3.004 3.004 0 1 1 0-6.008 3.004 3.004 0 0 1 0 6.008Zm4.807-6.719a1.078 1.078 0 1 0 0-2.156 1.078 1.078 0 0 0 0 2.156Z"/><path d="M20.533 6.11A4.605 4.605 0 0 0 17.9 3.48a6.607 6.607 0 0 0-2.186-.42c-.963-.042-1.268-.054-3.71-.054s-2.755 0-3.71.054a6.554 6.554 0 0 0-2.184.42 4.6 4.6 0 0 0-2.633 2.63 6.585 6.585 0 0 0-.419 2.186c-.043.962-.056 1.267-.056 3.71 0 2.442 0 2.753.056 3.71.015.748.156 1.486.419 2.187a4.61 4.61 0 0 0 2.634 2.632 6.583 6.583 0 0 0 2.185.45c.963.042 1.268.055 3.71.055s2.755 0 3.71-.055a6.616 6.616 0 0 0 2.186-.42 4.613 4.613 0 0 0 2.633-2.632c.263-.7.404-1.438.419-2.186.043-.962.056-1.267.056-3.71s0-2.753-.056-3.71a6.583 6.583 0 0 0-.421-2.217Zm-1.218 9.533a5.046 5.046 0 0 1-.311 1.688 2.987 2.987 0 0 1-1.712 1.71c-.535.2-1.1.305-1.67.312-.95.044-1.218.055-3.654.055-2.438 0-2.687 0-3.655-.055a4.961 4.961 0 0 1-1.67-.311 2.984 2.984 0 0 1-1.718-1.711 5.08 5.08 0 0 1-.311-1.67c-.043-.95-.053-1.217-.053-3.653 0-2.437 0-2.686.053-3.655a5.038 5.038 0 0 1 .311-1.687c.305-.79.93-1.41 1.719-1.712a5.01 5.01 0 0 1 1.669-.311c.95-.043 1.218-.055 3.655-.055s2.687 0 3.654.055a4.96 4.96 0 0 1 1.67.31 2.99 2.99 0 0 1 1.712 1.713 5.06 5.06 0 0 1 .311 1.669c.043.95.054 1.218.054 3.655 0 2.436 0 2.698-.043 3.654h-.011v-.001Z"/></symbol><symbol viewBox="0 0 16 17" id="instagram-map" xmlns="http://www.w3.org/2000/svg"><g clip-path="url(#bca)"><path d="M8.002 4.588a3.91 3.91 0 1 0 0 7.819 3.91 3.91 0 0 0 0-7.82Zm0 6.448a2.537 2.537 0 1 1 0-5.076 2.537 2.537 0 1 1 0 5.076Z"/><path d="M11.141.929C9.74.863 6.267.867 4.864.929c-1.233.058-2.32.355-3.198 1.232C.201 3.627.388 5.601.388 8.497c0 2.964-.165 4.893 1.278 6.336 1.472 1.47 3.475 1.278 6.336 1.278 2.936 0 3.95.002 4.988-.4 1.411-.548 2.476-1.81 2.58-4.076.067-1.402.063-4.874 0-6.277-.125-2.675-1.56-4.297-4.429-4.43Zm2.22 12.934c-.961.961-2.294.875-5.377.875-3.175 0-4.448.047-5.377-.884-1.07-1.065-.876-2.775-.876-5.367 0-3.508-.36-6.034 3.16-6.215.81-.028 1.048-.038 3.084-.038l.029.02c3.383 0 6.038-.355 6.197 3.165.036.803.044 1.044.044 3.077 0 3.138.06 4.419-.885 5.367Z"/><path d="M12.067 5.347a.914.914 0 1 0 0-1.828.914.914 0 0 0 0 1.828Z"/></g><defs><clipPath id="bca"><path transform="translate(.38 .88)" d="M0 0h15.238v15.238H0z"/></clipPath></defs></symbol><symbol viewBox="0 0 32 32" id="kg" xmlns="http://www.w3.org/2000/svg"><path d="M12 8.5a4 4 0 0 1 8 0h4.5A2.5 2.5 0 0 1 27 11v14.5a2.5 2.5 0 0 1-2.5 2.5h-17A2.5 2.5 0 0 1 5 25.5V11a2.5 2.5 0 0 1 2.5-2.5H12Z"/><path d="M11 15v7m0-3.5 3.5-3.5M11 18.5l3.5 3.5m4-1.5h2.7a1.8 1.8 0 0 0 1.8-1.8v-1.4a1.8 1.8 0 0 0-1.8-1.8h-1.4a1.8 1.8 0 0 0-1.8 1.8V22h5"/></symbol><symbol viewBox="0 0 103 40" id="logo-top" xmlns="http://www.w3.org/2000/svg"><path d="M7.222 31.809v7.636H5.454v-3.13H1.985v3.13H.218V31.81h1.767v3.01h3.47v-3.01h1.767Zm7.084 6h-3.545l-.677 1.636h-1.81l3.403-7.636h1.745l3.415 7.636h-1.855l-.676-1.636Zm-.556-1.342-1.211-2.924-1.211 2.924h2.422Zm9.39-1.004c.466.138.822.364 1.07.677.247.312.37.698.37 1.156 0 .676-.257 1.204-.774 1.582-.509.378-1.24.567-2.193.567H17.85V31.81h3.556c.887 0 1.578.17 2.073.512.494.342.742.83.742 1.462a1.8 1.8 0 0 1-.284 1.004c-.19.284-.454.509-.796.676Zm-3.534-.49h1.647c.386 0 .677-.077.873-.23.196-.16.295-.393.295-.698 0-.298-.102-.527-.306-.687-.196-.16-.483-.24-.862-.24h-1.647v1.854Zm1.942 3.163c.829 0 1.244-.327 1.244-.982 0-.633-.415-.949-1.244-.949h-1.942v1.931h1.942Zm10.343-.109v1.418h-5.913V31.81h5.771v1.418h-4.014v1.658h3.545v1.375h-3.545v1.767h4.156Zm5.017 1.549c-.778 0-1.483-.167-2.116-.502a3.89 3.89 0 0 1-1.484-1.407c-.356-.604-.534-1.284-.534-2.04 0-.757.178-1.433.534-2.03a3.784 3.784 0 0 1 1.484-1.407c.633-.341 1.342-.512 2.127-.512.662 0 1.258.116 1.79.349.537.233.988.567 1.352 1.004l-1.135 1.047c-.516-.597-1.156-.895-1.92-.895-.472 0-.894.106-1.265.316a2.21 2.21 0 0 0-.873.862c-.203.371-.305.793-.305 1.266s.102.894.305 1.265c.211.371.502.662.873.873.37.204.793.306 1.265.306.764 0 1.404-.302 1.92-.906l1.135 1.047a3.535 3.535 0 0 1-1.353 1.015 4.49 4.49 0 0 1-1.8.349Zm14.398-7.767v7.636H49.54v-3.13h-3.47v3.13h-1.767V31.81h1.768v3.01h3.469v-3.01h1.767Zm7.084 6h-3.545l-.676 1.636h-1.811l3.403-7.636h1.746l3.414 7.636h-1.854l-.677-1.636Zm-.556-1.342-1.21-2.924-1.212 2.924h2.422Zm11.531-1.004c.444.153.79.393 1.037.72.254.32.382.695.382 1.124 0 .465-.153.869-.459 1.21-.305.343-.72.604-1.243.786a5.094 5.094 0 0 1-1.702.273 6.457 6.457 0 0 1-1.571-.196 5.756 5.756 0 0 1-1.473-.6l.546-1.266c.334.204.702.36 1.102.47a4.89 4.89 0 0 0 1.189.152c.523 0 .956-.095 1.298-.284.349-.189.523-.454.523-.796a.707.707 0 0 0-.36-.644c-.232-.145-.552-.218-.96-.218H65.81v-1.33h1.735c.356 0 .632-.073.829-.219a.697.697 0 0 0 .305-.6c0-.298-.145-.53-.436-.698-.284-.168-.651-.251-1.102-.251-.335 0-.68.047-1.036.142a3.94 3.94 0 0 0-1.015.403l-.534-1.374a5.649 5.649 0 0 1 2.618-.622c.596 0 1.145.087 1.647.262.502.174.902.429 1.2.763a1.7 1.7 0 0 1 .447 1.168c0 .363-.098.687-.294.97a1.898 1.898 0 0 1-.808.655Zm7.989 2.346h-3.546l-.676 1.636H71.32l3.404-7.636h1.745l3.415 7.636H78.03l-.676-1.636Zm-.557-1.342-1.21-2.924-1.212 2.924h2.422Zm7.057-.098h-1.222v3.076h-1.756V31.81h1.756v3.087h1.265l2.008-3.087h1.865l-2.498 3.687 2.575 3.95h-2.008l-1.985-3.077Z"/><path d="M93.696 37.809h-3.545l-.677 1.636h-1.81l3.403-7.636h1.746l3.414 7.636h-1.854l-.677-1.636Zm-.556-1.342-1.211-2.924-1.21 2.924h2.42Zm8.442-1.004c.443.153.789.393 1.036.72.255.32.382.695.382 1.124 0 .465-.153.869-.458 1.21-.306.343-.72.604-1.244.786a5.09 5.09 0 0 1-1.702.273 6.456 6.456 0 0 1-1.57-.196 5.755 5.755 0 0 1-1.473-.6l.545-1.266c.335.204.702.36 1.102.47.407.101.804.152 1.189.152.524 0 .956-.095 1.298-.284.349-.189.524-.454.524-.796a.707.707 0 0 0-.36-.644c-.233-.145-.553-.218-.96-.218h-1.866v-1.33h1.735c.356 0 .633-.073.829-.219a.697.697 0 0 0 .306-.6c0-.298-.146-.53-.437-.698-.283-.168-.65-.251-1.102-.251-.334 0-.68.047-1.036.142a3.941 3.941 0 0 0-1.015.403l-.534-1.374a5.649 5.649 0 0 1 2.618-.622 4.98 4.98 0 0 1 1.647.262c.502.174.902.429 1.2.763.299.335.448.724.448 1.168 0 .363-.099.687-.295.97a1.894 1.894 0 0 1-.807.655Z"/><path fill-rule="evenodd" clip-rule="evenodd" d="M51.477.773v24.698h50.343l.249-1.124L51.477.773Zm1.18 5.839h2.71V3.886l15.772 7.35v4.438l-13.303 6.272h-5.179V6.612Zm5.9 17.68v-1.383l13.304-6.271h4.094v5.308h-.938v2.346h-16.46Zm19.456 0v-2.346h-.878v-5.308h.762v-2.253l12.244 5.705v4.202H78.013ZM51.477.773v24.698H1.135l-.249-1.124L51.477.773Zm-1.18 5.839H47.59V3.886l-15.773 7.35v4.438l13.303 6.272h5.179V6.612Zm-5.9 17.68v-1.383l-13.303-6.271H27v5.308h.94v2.346h16.458Zm-19.455 0v-2.346h.878v-5.308h-.762v-2.253L12.813 20.09v4.202h12.13Z"/></symbol><symbol viewBox="0 0 24 24" id="mail" xmlns="http://www.w3.org/2000/svg"><path d="M21.793 4a.999.999 0 0 0-.706-.639C20.915 3.319 16.83 2.336 12 2.336c-4.744 0-8.907.982-9.082 1.024a.998.998 0 0 0-.712.646C2.157 4.149 1 7.542 1 12s1.156 7.852 1.206 7.994a1 1 0 0 0 .717.646c.178.042 4.42 1.023 9.078 1.023 4.819 0 8.914-.983 9.086-1.025a1 1 0 0 0 .708-.643c.049-.141 1.206-3.51 1.206-7.996 0-4.525-1.158-7.86-1.207-8L21.793 4ZM12 4.336c3.591 0 6.82.589 8.067.848.069.241.156.561.247.949a35.538 35.538 0 0 1-3.959 3.551c-1.642 1.267-3.499 2.381-4.355 2.875-.856-.494-2.71-1.606-4.356-2.876A35.516 35.516 0 0 1 3.69 6.138c.091-.388.177-.71.246-.953C5.2 4.926 8.463 4.336 12 4.336Zm8.064 14.479c-1.251.26-4.483.848-8.064.848-3.472 0-6.785-.593-8.066-.852A25.865 25.865 0 0 1 3 11.999c0-1.265.103-2.444.246-3.471.77.742 1.851 1.716 3.177 2.739 2.338 1.804 4.986 3.258 5.098 3.319a1 1 0 0 0 .959 0c.112-.061 2.76-1.515 5.098-3.319a38.793 38.793 0 0 0 3.182-2.743c.14 1.021.241 2.198.241 3.475 0 3.152-.631 5.748-.936 6.815l-.001.001Z"/></symbol><symbol viewBox="0 0 16 16" id="measuring" xmlns="http://www.w3.org/2000/svg"><path d="M6.4 10a.8.8 0 1 0 0-1.6.8.8 0 0 0 0 1.6Z"/><path d="M14.4 11.6v1.6h-1.6v-4c0-3.52-2.88-6.4-6.4-6.4C2.88 2.8 0 5.68 0 9.2c0 3.52 2.88 6.4 6.4 6.4h6c.24 0 .4-.16.4-.4v-.4H16v-3.2h-1.6Zm-8 0C5.04 11.6 4 10.56 4 9.2c0-1.36 1.04-2.4 2.4-2.4 1.36 0 2.4 1.04 2.4 2.4 0 1.36-1.04 2.4-2.4 2.4Zm4-11.2v1.76c1.2.72 2.32 1.84 3.04 3.04h1.76A9.994 9.994 0 0 0 10.4.4Z"/></symbol><symbol viewBox="0 0 15 12" id="menu" xmlns="http://www.w3.org/2000/svg"><path d="M.462 0h14v2h-14zm0 5h14v2h-14zm0 5h10v2h-10z"/></symbol><symbol viewBox="0 0 20 20" id="menu-2" xmlns="http://www.w3.org/2000/svg"><path d="M18.285 14.597h-5.6m-8 0h-2.4m16-8.8h-2.4m-8 0h-5.6m4 6.4h4.8c.88 0 1.6.4 1.6 1.6v1.6c0 1.2-.72 1.6-1.6 1.6h-4.8c-.88 0-1.6-.4-1.6-1.6v-1.6c0-1.2.72-1.6 1.6-1.6Zm3.2-8.8h4.8c.88 0 1.6.4 1.6 1.6v1.6c0 1.2-.72 1.6-1.6 1.6h-4.8c-.88 0-1.6-.4-1.6-1.6v-1.6c0-1.2.72-1.6 1.6-1.6Z" stroke-width="1.5" stroke-miterlimit="10" stroke-linecap="round" stroke-linejoin="round"/></symbol><symbol viewBox="0 0 8 10" id="next" xmlns="http://www.w3.org/2000/svg"><path d="M7.375 5 .625.317v9.366L7.376 5Z"/></symbol><symbol viewBox="0 0 25 25" id="person" xmlns="http://www.w3.org/2000/svg"><path d="M20.985 16.015a11.954 11.954 0 0 0-4.56-2.86 6.935 6.935 0 0 0 3.012-5.717A6.945 6.945 0 0 0 12.5.5a6.945 6.945 0 0 0-6.938 6.938 6.935 6.935 0 0 0 3.013 5.717 11.954 11.954 0 0 0-4.56 2.86A11.922 11.922 0 0 0 .5 24.5h1.875c0-5.583 4.542-10.125 10.125-10.125S22.625 18.917 22.625 24.5H24.5c0-3.205-1.248-6.219-3.515-8.485ZM12.5 12.5a5.068 5.068 0 0 1-5.063-5.063A5.068 5.068 0 0 1 12.5 2.375a5.068 5.068 0 0 1 5.063 5.063A5.068 5.068 0 0 1 12.5 12.5Z"/></symbol><symbol viewBox="0 0 16 16" id="phone-call" xmlns="http://www.w3.org/2000/svg"><path d="m14.633 11.281-1.958-1.957c-.7-.7-1.888-.42-2.168.49-.21.628-.909.978-1.538.838-1.398-.35-3.286-2.167-3.636-3.636-.21-.63.21-1.328.84-1.538.908-.28 1.188-1.469.489-2.168L4.704 1.352c-.56-.49-1.399-.49-1.888 0L1.487 2.681c-1.328 1.398.14 5.104 3.427 8.39 3.286 3.287 6.992 4.825 8.39 3.427l1.329-1.329c.49-.559.49-1.398 0-1.888Z"/></symbol><symbol viewBox="0 0 31 34" id="play" xmlns="http://www.w3.org/2000/svg"><path d="M5.485.74C2.455-.996 0 .428 0 3.919V29.68c0 3.494 2.456 4.916 5.485 3.18l22.517-12.914c3.03-1.738 3.03-4.554 0-6.292L5.486.741Z"/></symbol><symbol viewBox="0 0 18 18" id="positive" xmlns="http://www.w3.org/2000/svg"><g clip-path="url(#boa)"><path d="M9.235.143c-4.687 0-8.5 3.813-8.5 8.5 0 4.687 3.813 8.5 8.5 8.5 4.687 0 8.5-3.813 8.5-8.5 0-4.687-3.813-8.5-8.5-8.5Zm0 15.355A6.863 6.863 0 0 1 2.38 8.643a6.863 6.863 0 0 1 6.855-6.855 6.863 6.863 0 0 1 6.855 6.855 6.863 6.863 0 0 1-6.855 6.855Z"/><path d="m12.218 5.594-4.08 4.08-2.16-2.16-1.163 1.162L8.138 12l5.243-5.243-1.163-1.163Z"/></g><defs><clipPath id="boa"><path transform="translate(.735 .143)" d="M0 0h17v17H0z"/></clipPath></defs></symbol><symbol viewBox="0 0 8 10" id="prev" xmlns="http://www.w3.org/2000/svg"><path d="M.625 5 7.375.317v9.366L.624 5Z"/></symbol><symbol viewBox="0 0 24 24" id="roulette" xmlns="http://www.w3.org/2000/svg"><path fill-rule="evenodd" clip-rule="evenodd" d="m8 4.022-.144.022-.491.098-.492.097-.474.162-.474.16-.46.223-.46.223-.521.35-.522.35-.627.634-.628.634-.349.528-.348.529-.232.49-.232.49-.15.453-.15.454-.105.468-.104.469-.019 2.838L1 16.53l.054.313.054.313.143.373.142.374.195.304.195.304.272.29.273.289.327.233.327.233.364.152.363.153.319.068.319.068L9.38 20l5.034.001.255-.053.254-.053.385-.185.385-.186.285-.27.285-.268 2.72-.014 2.719-.014.264-.127.265-.127.226-.203.227-.203.158-.324.158-.324v-5.098l-.158-.324-.158-.324-.22-.196-.221-.196-.27-.134-.271-.134-2.425-.024-2.425-.025-.062-.432-.062-.431-.099-.363-.098-.363-.171-.467-.171-.466-.219-.413-.218-.412-.195-.291-.194-.291-.276-.34-.275-.34-.353-.343-.353-.343-.24-.196-.24-.196-.385-.254-.385-.253-.48-.234-.481-.233-.463-.153-.464-.152-.45-.1-.45-.098-.962-.015L8.145 4 8 4.022Zm2.255 1.641.332.076.424.143.423.144.347.176.346.176.196.127.197.127.288.218.289.218.282.269.282.268.297.388.296.389.126.198.125.198.175.35.174.349.142.427.142.428.081.334.08.335.02 3.2.018 3.2-.081.216-.082.215-.173.194-.174.194-.24.114-.24.113H4.485l-.262-.078-.26-.078-.238-.121-.238-.122-.274-.276-.273-.275-.12-.24-.12-.24-.078-.264-.078-.263v-5.112l.074-.431.073-.43.123-.413.123-.413.19-.41.19-.412.152-.244.151-.243.298-.389.297-.388.282-.268.283-.269.288-.221.288-.222.39-.228.39-.227.343-.142.344-.14.324-.098.325-.098.384-.073.385-.073.841.02.842.021.331.076ZM8.337 7.631l-.336.043-.423.124-.422.123-.347.176-.347.176-.347.241-.348.242-.34.362-.342.362-.216.337-.216.338-.139.302-.139.302-.131.436-.132.437-.003.849-.002.849.11.412.112.412.213.455.213.454.236.322.237.322.353.345.352.344.371.245.37.244.364.152.363.153.372.096.372.095.531.031.532.03.5-.084.5-.084.339-.123.338-.122.24-.122.24-.121.347-.24.346-.241.375-.396.376-.396.184-.282.185-.282.184-.397.184-.398.112-.412.112-.412-.004-.85-.004-.848-.13-.437-.131-.436-.14-.303-.138-.301-.216-.338-.216-.337-.341-.362-.341-.362-.357-.249-.356-.248-.4-.193-.4-.194-.46-.117-.46-.118-.5-.024-.502-.025-.337.043ZM9.755 9.26l.313.071.342.171.343.17.314.262.315.262.218.309.218.308.146.31.145.31.079.36.08.359-.023.516-.022.516-.144.418-.145.418-.226.344-.226.344-.323.298-.322.298-.433.21-.432.211-.37.076-.371.076h-.585l-.371-.076-.37-.076-.433-.21-.433-.211-.322-.298-.322-.298-.227-.344-.226-.344-.144-.418-.145-.418-.022-.516-.022-.516.08-.36.078-.358.146-.31.145-.31.218-.31.218-.308.314-.26.313-.261.353-.174.352-.173.304-.07.303-.07.169-.022.168-.022.336.022.337.022.312.072Zm-1.058 2.245-.12.04-.144.075-.144.075-.106.115-.106.114-.074.18-.074.18v.492l.091.18.092.18.137.13.136.131.179.076.179.075h.39l.18-.075.178-.076.137-.13.136-.131.092-.18.092-.18v-.492l-.075-.18-.074-.18-.106-.114-.106-.115-.18-.093-.18-.093-.205-.022-.204-.022-.12.04Zm12.713 1.343.076.076v4.352l-.076.077-.076.076h-1.387v-1.005l-.108-.16-.108-.16-.129-.096-.128-.096-.232-.02-.232-.02-.19.112-.19.11-.098.17-.098.17-.018.497-.018.498H16.87v-4.657h4.464l.076.076Z"/></symbol><symbol viewBox="0 0 258 57" id="sStages-arrow" xmlns="http://www.w3.org/2000/svg"><path d="M1 40S37.727 1.293 121 1.293 241 40 241 40m8-15.609L257 56l-32-8"/></symbol><symbol viewBox="0 0 16 17" id="search" xmlns="http://www.w3.org/2000/svg"><g clip-path="url(#bsa)"><path d="m15.621 14.185-3.678-3.679a6.465 6.465 0 1 0-1.785 1.873l3.634 3.635c.253.252.584.378.915.378a1.29 1.29 0 0 0 .914-2.207Zm-9.156-2.742a4.37 4.37 0 1 1 0-8.74 4.37 4.37 0 0 1 0 8.74Z"/></g><defs><clipPath id="bsa"><path transform="translate(0 .5)" d="M0 0h16v16H0z"/></clipPath></defs></symbol><symbol viewBox="0 0 32 32" id="size" xmlns="http://www.w3.org/2000/svg"><g clip-path="url(#bta)"><path d="m13.343 4-2.676-.019a4 4 0 0 0-4-3.981H4a4 4 0 0 0-4 4v2.667a4 4 0 0 0 3.99 4l-.018 2.657a1.334 1.334 0 0 0 1.325 1.343h.008a1.333 1.333 0 0 0 1.334-1.324l.018-2.676h.01a4 4 0 0 0 4-4v-.019l2.657.019h.01A1.333 1.333 0 0 0 13.342 4ZM28 0h-2.667a4 4 0 0 0-4 3.99l-2.659-.018h-.008a1.333 1.333 0 1 0-.01 2.667l2.677.018v.01a4 4 0 0 0 4 4h.019l-.02 2.657a1.334 1.334 0 0 0 1.325 1.343h.01a1.333 1.333 0 0 0 1.332-1.324l.02-2.676a4 4 0 0 0 3.98-4V4a4 4 0 0 0-4-4Zm.009 21.333.018-2.658a1.333 1.333 0 0 0-1.325-1.342h-.008a1.333 1.333 0 0 0-1.333 1.324l-.019 2.676h-.01a4 4 0 0 0-4 4v.019l-2.657-.019h-.009a1.333 1.333 0 1 0-.01 2.667l2.677.019a4 4 0 0 0 4 3.98H28a4 4 0 0 0 4-4v-2.666a4 4 0 0 0-3.991-4Zm-14.666 4.028-2.676-.018v-.01a4 4 0 0 0-4-4h-.019l.019-2.657a1.333 1.333 0 0 0-1.324-1.343h-.01A1.333 1.333 0 0 0 4 18.657l-.019 2.676a4 4 0 0 0-3.981 4V28a4 4 0 0 0 4 4h2.667a4 4 0 0 0 4-3.99l2.658.018h.008a1.333 1.333 0 1 0 .01-2.667Z"/></g><defs><clipPath id="bta"><path d="M0 0h32v32H0z"/></clipPath></defs></symbol><symbol viewBox="0 0 4 8" id="slash" xmlns="http://www.w3.org/2000/svg"><path d="M4 0 1.298 8H0l2.702-8H4Z"/></symbol><symbol viewBox="0 0 32 32" id="snow" xmlns="http://www.w3.org/2000/svg"><path d="M16 3v26M4.741 9.5l22.518 13m-22.518 0 22.518-13"/><circle cx="16" cy="16" r="3"/></symbol><symbol viewBox="0 0 16 16" id="telegram" xmlns="http://www.w3.org/2000/svg"><path d="m14.629 3.698-2.012 9.618c-.152.679-.548.848-1.11.528l-3.066-2.29-1.48 1.442c-.163.166-.3.305-.616.305l.22-3.165 5.683-5.204c.247-.223-.054-.347-.384-.123L4.839 9.29l-3.024-.959c-.658-.208-.67-.667.137-.986L13.78 2.727c.548-.208 1.027.124.849.971Z"/></symbol><symbol viewBox="0 0 16 16" id="viber" xmlns="http://www.w3.org/2000/svg"><path d="M8 1.335c-1.071.013-3.374.19-4.662 1.37-.958.948-1.292 2.35-1.331 4.084-.033 1.728-.072 4.973 3.058 5.856v1.346s-.02.538.337.648c.438.14.688-.275 1.105-.72l.778-.879c2.142.178 3.782-.232 3.97-.293.435-.139 2.883-.451 3.283-3.696.41-3.351-.2-5.463-1.301-6.418h-.007c-.332-.306-1.668-1.279-4.652-1.29 0 0-.222-.014-.578-.008Zm.037.942a7.02 7.02 0 0 1 .488.011c2.527.007 3.732.767 4.017 1.023.927.794 1.405 2.697 1.055 5.495-.332 2.713-2.317 2.885-2.685 3.002-.156.05-1.6.406-3.42.289 0 0-1.356 1.634-1.78 2.055-.067.074-.146.095-.196.085-.071-.018-.093-.107-.089-.229l.013-2.233c-2.655-.733-2.498-3.5-2.47-4.946.033-1.446.304-2.628 1.113-3.43 1.088-.982 3.043-1.115 3.953-1.122Zm.2 1.446a.166.166 0 1 0 0 .332 3.136 3.136 0 0 1 2.242.883c.606.588.9 1.378.912 2.411 0 .092.074.167.167.167V7.51a.167.167 0 0 0 .168-.165 3.588 3.588 0 0 0-1.009-2.646c-.66-.645-1.496-.977-2.48-.977Zm-2.198.382a.523.523 0 0 0-.342.067H5.69a2.61 2.61 0 0 0-.637.523 1.003 1.003 0 0 0-.256.525.71.71 0 0 0 .026.302l.01.006c.172.504.396.988.67 1.444a8.48 8.48 0 0 0 1.29 1.762l.015.022.024.017.015.018.017.015c.532.505 1.127.94 1.769 1.295.734.4 1.18.588 1.447.667v.004c.078.024.15.034.221.034.228-.016.444-.109.613-.262a2.53 2.53 0 0 0 .517-.638v-.004c.128-.241.085-.469-.1-.623-.37-.323-.77-.61-1.195-.857-.285-.155-.574-.061-.69.095l-.25.315c-.129.156-.361.134-.361.134l-.007.004C7.093 8.527 6.63 6.772 6.63 6.772s-.022-.239.139-.36l.312-.252c.15-.122.254-.41.094-.695a7.498 7.498 0 0 0-.856-1.194.475.475 0 0 0-.28-.167Zm2.486.495c-.221 0-.221.334.003.334A2.098 2.098 0 0 1 10 5.572 1.94 1.94 0 0 1 10.5 7a.168.168 0 0 0 .167.165l.007.009a.169.169 0 0 0 .167-.167c.015-.662-.191-1.218-.595-1.663C9.84 4.9 9.273 4.65 8.549 4.6h-.024Zm.274.898c-.228-.006-.236.335-.01.341.55.029.816.306.851.877a.166.166 0 0 0 .165.163h.007a.168.168 0 0 0 .16-.178c-.039-.744-.445-1.164-1.166-1.202H8.8Z"/></symbol><symbol viewBox="0 0 24 24" id="vk" xmlns="http://www.w3.org/2000/svg"><path d="M21.579 6.855c.14-.465 0-.806-.662-.806h-2.193c-.558 0-.813.295-.953.619 0 0-1.115 2.719-2.695 4.482-.51.513-.743.675-1.021.675-.139 0-.341-.162-.341-.627V6.855c0-.558-.161-.806-.626-.806H9.642c-.348 0-.558.258-.558.504 0 .528.79.65.871 2.138v3.228c0 .707-.127.836-.407.836-.743 0-2.551-2.73-3.624-5.853-.209-.607-.42-.852-.98-.852H2.752c-.627 0-.752.295-.752.619 0 .582.743 3.462 3.461 7.27 1.812 2.602 4.363 4.012 6.687 4.012 1.393 0 1.565-.313 1.565-.853v-1.966c0-.626.133-.752.574-.752.324 0 .882.164 2.183 1.417 1.486 1.486 1.732 2.153 2.567 2.153h2.192c.626 0 .939-.313.759-.931-.197-.615-.907-1.51-1.849-2.57-.512-.603-1.277-1.253-1.51-1.578-.325-.42-.231-.604 0-.976.001 0 2.672-3.761 2.95-5.04Z"/></symbol><symbol viewBox="0 0 20 20" id="wa" xmlns="http://www.w3.org/2000/svg"><path d="m13.213 11.346-.006.044c-1.283-.64-1.417-.725-1.582-.476-.115.172-.45.562-.551.678-.102.114-.204.122-.377.044-.175-.088-.737-.272-1.402-.867a5.291 5.291 0 0 1-.968-1.207c-.17-.295.187-.337.512-.953.059-.123.029-.22-.014-.306-.044-.087-.392-.945-.538-1.287-.14-.34-.284-.297-.392-.297-.336-.03-.582-.025-.798.2-.942 1.035-.704 2.103.101 3.238 1.583 2.072 2.427 2.453 3.97 2.983.416.132.796.114 1.096.07.335-.053 1.03-.42 1.176-.831.149-.412.149-.753.105-.832-.043-.078-.158-.122-.332-.2Z"/><path d="M14.97 5.012C10.485.676 3.062 3.821 3.059 9.938c0 1.223.32 2.415.93 3.468L3 17l3.695-.963C11.307 18.527 16.998 15.22 17 9.94a6.88 6.88 0 0 0-2.039-4.906l.009-.023Zm.864 4.91c-.003 4.453-4.89 7.233-8.757 4.96l-.21-.124-2.187.569.586-2.127-.14-.218c-2.405-3.83.359-8.835 4.916-8.835 1.548 0 3.001.604 4.096 1.698a5.71 5.71 0 0 1 1.697 4.077Z"/></symbol><symbol viewBox="0 0 12.8 12.8" xml:space="preserve" id="whatsapp" xmlns="http://www.w3.org/2000/svg"><path d="M6.4 0C2.9 0 0 2.9 0 6.4c0 1.2.3 2.3.9 3.3L0 12.8l3.2-.8c.9.5 2 .8 3.2.8 3.5 0 6.4-2.9 6.4-6.4S9.9 0 6.4 0zM4.2 3.4h.3c.1 0 .2 0 .4.3.1.3.4 1.1.5 1.2s.1.2 0 .3l-.2.2c-.1.1-.2.2-.2.3-.1.1-.2.2-.1.3.1.2.4.7.9 1.1.6.5 1.1.7 1.3.8.1.1.2.1.3 0 .1-.1.4-.5.5-.6.1-.2.2-.2.4-.1.1.1.9.4 1.1.5s.3.1.3.2 0 .4-.1.8c-.2.3-.8.6-1.1.7-.3 0-.6.1-1.9-.4C5 8.3 4 6.7 3.9 6.6c-.1-.1-.7-.9-.7-1.7 0-.8.4-1.2.6-1.3.1-.1.3-.2.4-.2z"/></symbol><symbol viewBox="0 0 16 17" id="youtube" xmlns="http://www.w3.org/2000/svg"><g clip-path="url(#cba)"><path d="m15.282 4.646.019.124a1.932 1.932 0 0 0-1.313-1.34l-.013-.004c-1.188-.322-5.969-.322-5.969-.322s-4.768-.007-5.968.322a1.933 1.933 0 0 0-1.323 1.33l-.003.014c-.444 2.318-.447 5.104.02 7.586l-.02-.126a1.932 1.932 0 0 0 1.313 1.34l.014.004c1.186.323 5.968.323 5.968.323s4.768 0 5.968-.323a1.933 1.933 0 0 0 1.323-1.33l.003-.014c.202-1.078.318-2.319.318-3.586v-.287a20.53 20.53 0 0 0-.337-3.711Zm-8.8 6.172v-4.63l3.978 2.319-3.979 2.311Z"/></g><defs><clipPath id="cba"><path transform="translate(.38 .88)" d="M0 0h15.238v15.238H0z"/></clipPath></defs></symbol><symbol viewBox="0 0 50 50" id="yzen" xmlns="http://www.w3.org/2000/svg"><path d="M46.894 23.986h.011a.998.998 0 0 0 .996-1.091C46.897 11.852 38.154 3.106 27.11 2.1a1 1 0 0 0-1.091 1.008c.174 14.676 2.11 20.673 20.875 20.878zm0 2.028c-18.765.205-20.7 6.202-20.874 20.878a1 1 0 0 0 1.091 1.008c11.044-1.006 19.787-9.751 20.79-20.795a.999.999 0 0 0-.262-.769 1.055 1.055 0 0 0-.745-.322zM22.823 2.105C11.814 3.14 3.099 11.884 2.1 22.897a.999.999 0 0 0 .996 1.09h.012c18.703-.215 20.634-6.209 20.81-20.875a1.003 1.003 0 0 0-1.095-1.007zM3.107 26.013c-.311-.035-.555.113-.746.321a1.003 1.003 0 0 0-.262.769c.999 11.013 9.715 19.757 20.724 20.792a1.002 1.002 0 0 0 1.094-1.008c-.176-14.665-2.106-20.659-20.81-20.874z"/></symbol></svg>