<svg width="32" height="32" viewBox="0 0 32 32" fill="none" xmlns="http://www.w3.org/2000/svg">
<g clip-path="url(#clip0_4003_471)">
<path d="M16 17.3333C16 19.5427 12.4187 21.3333 8 21.3333C3.58133 21.3333 0 19.5427 0 17.3333C0 15.124 3.58133 13.3333 8 13.3333C12.4187 13.3333 16 15.124 16 17.3333ZM16 24.6667V27.3333C16 29.9933 12.5613 32 8 32C3.43867 32 0 29.9933 0 27.3333V24.6667C0 27.2947 3.33333 29.3333 8 29.3333C12.6667 29.3333 16 27.2947 16 24.6667ZM16 19.3333V22C16 24.66 12.5613 26.6667 8 26.6667C3.43867 26.6667 0 24.66 0 22V19.3333C0 21.9613 3.33333 24 8 24C12.6667 24 16 21.9613 16 19.3333ZM24 8H13.3333V10.6667H24V8ZM25.3333 0H12C8.324 0 5.33333 2.99067 5.33333 6.66667V10.852C6.17733 10.7307 7.06933 10.6667 8 10.6667C8.93067 10.6667 9.82267 10.7307 10.6667 10.852V8C10.6667 6.52933 11.8627 5.33333 13.3333 5.33333H24C25.4707 5.33333 26.6667 6.52933 26.6667 8V10.6667C26.6667 12.1373 25.4707 13.3333 24 13.3333H16.708C17.5813 14.0987 18.1907 15 18.4787 16H19.9987C20.736 16 21.332 16.5973 21.332 17.3333V18.6667C21.332 19.4027 20.736 20 19.9987 20H18.6653V22.6667H25.332C26.0693 22.6667 26.6653 23.264 26.6653 24C26.6653 24.736 26.0693 25.3333 25.332 25.3333H18.6653V27.3333C18.6653 29.1533 17.8427 30.7587 16.416 32H25.332C29.008 32 31.9987 29.0093 31.9987 25.3333V6.66667C31.9987 2.99067 29.0093 0 25.3333 0ZM26.6667 18.6667C26.6667 19.4027 26.0707 20 25.3333 20C24.596 20 24 19.4027 24 18.6667V17.3333C24 16.5973 24.596 16 25.3333 16C26.0707 16 26.6667 16.5973 26.6667 17.3333V18.6667Z" fill="white"/>
</g>
<defs>
<clipPath id="clip0_4003_471">
<rect width="32" height="32" fill="white"/>
</clipPath>
</defs>
</svg>
