<svg width="20" height="20" viewBox="0 0 20 20" fill="none" xmlns="http://www.w3.org/2000/svg">
<g id="close">
<path id="Vector" d="M11.1666 10L16.4166 4.75001C16.7499 4.41668 16.7499 3.91668 16.4166 3.58334C16.0833 3.25001 15.5833 3.25001 15.2499 3.58334L9.99992 8.83334L4.74992 3.58334C4.41659 3.25001 3.91659 3.25001 3.58325 3.58334C3.24992 3.91668 3.24992 4.41668 3.58325 4.75001L8.83325 10L3.58325 15.25C3.41659 15.4167 3.33325 15.5833 3.33325 15.8333C3.33325 16.3333 3.66659 16.6667 4.16659 16.6667C4.41659 16.6667 4.58325 16.5833 4.74992 16.4167L9.99992 11.1667L15.2499 16.4167C15.4166 16.5833 15.5833 16.6667 15.8333 16.6667C16.0833 16.6667 16.2499 16.5833 16.4166 16.4167C16.7499 16.0833 16.7499 15.5833 16.4166 15.25L11.1666 10Z" fill="#35455C"/>
</g>
</svg>
