<svg width="37" height="36" viewBox="0 0 37 36" fill="none" xmlns="http://www.w3.org/2000/svg">
<g clip-path="url(#clip0_1121_5979)">
<path d="M35.8639 9.64352L32.9989 4.88702L18.4999 0.0540161L4.00094 4.88702L1.16294 9.59552C0.450442 10.7835 0.318442 12.2085 0.798442 13.506C1.26344 14.7645 2.24444 15.738 3.49844 16.1955L3.48644 30.9615L18.4864 35.961L33.4864 30.9615L33.4984 16.1955C34.7674 15.7515 35.7589 14.7765 36.2269 13.5135C36.7024 12.228 36.5704 10.818 35.8639 9.64052V9.64352ZM27.2584 6.13652L18.5119 9.05552L9.76244 6.12902L18.4999 3.21602L27.2584 6.13652ZM3.73394 11.142L5.67194 7.92452L16.2439 11.46L13.9504 15.2835C13.5919 15.8805 12.8479 16.155 12.1909 15.9345L4.56944 13.395C4.12394 13.2465 3.77444 12.909 3.61094 12.468C3.44894 12.0285 3.49244 11.5425 3.73394 11.142ZM6.49844 17.199L11.2429 18.78C13.2574 19.452 15.4309 18.648 16.5244 16.827L16.9984 16.038L16.9909 32.3025L6.49094 28.803L6.49994 17.2005L6.49844 17.199ZM19.9894 32.301L19.9969 16.0275L20.4754 16.8255C21.3094 18.2175 22.7734 19.014 24.3169 19.014C24.7954 19.014 25.2814 18.9375 25.7569 18.7785L30.4984 17.199L30.4894 28.8L19.9894 32.301ZM33.4144 12.477C33.2569 12.9045 32.9179 13.2315 32.4859 13.3755L24.8089 15.9345C24.1519 16.155 23.4079 15.882 23.0494 15.2835L20.7604 11.469L31.3369 7.93952L33.2944 11.19C33.5284 11.58 33.5734 12.0495 33.4144 12.477Z" fill="#D3D5D8"/>
</g>
<defs>
<clipPath id="clip0_1121_5979">
<rect width="36" height="36" fill="white" transform="translate(0.5)"/>
</clipPath>
</defs>
</svg>
