<svg width="24" height="24" viewBox="0 0 24 24" fill="none" xmlns="http://www.w3.org/2000/svg">
<path d="M21.793 4C21.681 3.681 21.415 3.441 21.087 3.361C20.915 3.319 16.83 2.336 12 2.336C7.256 2.336 3.093 3.318 2.918 3.36C2.585 3.44 2.317 3.683 2.206 4.006C2.157 4.149 1 7.542 1 12C1 16.458 2.156 19.852 2.206 19.994C2.318 20.318 2.589 20.562 2.923 20.64C3.101 20.682 7.343 21.663 12.001 21.663C16.82 21.663 20.915 20.68 21.087 20.638C21.417 20.558 21.683 20.316 21.795 19.995C21.844 19.854 23.001 16.485 23.001 11.999C23.001 7.474 21.843 4.139 21.794 3.999L21.793 4ZM12 4.336C15.591 4.336 18.82 4.925 20.067 5.184C20.136 5.425 20.223 5.745 20.314 6.133C19.754 6.724 18.333 8.158 16.355 9.684C14.713 10.951 12.856 12.065 12 12.559C11.144 12.065 9.29 10.953 7.644 9.683C5.671 8.162 4.254 6.732 3.69 6.138C3.781 5.75 3.867 5.428 3.936 5.185C5.2 4.926 8.463 4.336 12 4.336ZM20.064 18.815C18.813 19.075 15.581 19.663 12 19.663C8.528 19.663 5.215 19.07 3.934 18.811C3.63 17.739 3 15.143 3 11.999C3 10.734 3.103 9.555 3.246 8.528C4.016 9.27 5.097 10.244 6.423 11.267C8.761 13.071 11.409 14.525 11.521 14.586C11.671 14.668 11.836 14.709 12.001 14.709C12.166 14.709 12.331 14.668 12.48 14.586C12.592 14.525 15.24 13.071 17.578 11.267C18.907 10.242 19.989 9.266 20.76 8.524C20.9 9.545 21.001 10.722 21.001 11.999C21.001 15.151 20.37 17.747 20.065 18.814L20.064 18.815Z" fill="#8F959E"/>
</svg>
