<svg width="20" height="20" viewBox="0 0 20 20" fill="none" xmlns="http://www.w3.org/2000/svg">
<g id="menu 1">
<path id="Vector" d="M18.2851 14.5969H12.6851" stroke="#35455C" stroke-width="1.5" stroke-miterlimit="10" stroke-linecap="round" stroke-linejoin="round"/>
<path id="Vector_2" d="M4.68516 14.5969H2.28516" stroke="#35455C" stroke-width="1.5" stroke-miterlimit="10" stroke-linecap="round" stroke-linejoin="round"/>
<path id="Vector_3" d="M18.285 5.79688H15.885" stroke="#35455C" stroke-width="1.5" stroke-miterlimit="10" stroke-linecap="round" stroke-linejoin="round"/>
<path id="Vector_4" d="M7.88516 5.79688H2.28516" stroke="#35455C" stroke-width="1.5" stroke-miterlimit="10" stroke-linecap="round" stroke-linejoin="round"/>
<path id="Vector_5" d="M6.28506 12.1969H11.085C11.965 12.1969 12.685 12.5969 12.685 13.7969V15.3969C12.685 16.5969 11.965 16.9969 11.085 16.9969H6.28506C5.40506 16.9969 4.68506 16.5969 4.68506 15.3969V13.7969C4.68506 12.5969 5.40506 12.1969 6.28506 12.1969Z" stroke="#35455C" stroke-width="1.5" stroke-miterlimit="10" stroke-linecap="round" stroke-linejoin="round"/>
<path id="Vector_6" d="M9.48521 3.39687H14.2852C15.1652 3.39687 15.8852 3.79687 15.8852 4.99687V6.59687C15.8852 7.79687 15.1652 8.19687 14.2852 8.19687H9.48521C8.60521 8.19687 7.88525 7.79687 7.88525 6.59687V4.99687C7.88525 3.79687 8.60521 3.39687 9.48521 3.39687Z" stroke="#35455C" stroke-width="1.5" stroke-miterlimit="10" stroke-linecap="round" stroke-linejoin="round"/>
</g>
</svg>
