<svg width="32" height="32" viewBox="0 0 32 32" fill="none" xmlns="http://www.w3.org/2000/svg">
<g clip-path="url(#clip0_4003_453)">
<path d="M13.3427 4L10.6667 3.98133C10.6617 2.92371 10.2381 1.91108 9.48851 1.16497C8.7389 0.418853 7.72431 -1.15163e-05 6.66667 2.37478e-10L4 2.37479e-10C2.93913 2.3748e-10 1.92172 0.421427 1.17157 1.17157C0.421427 1.92172 0 2.93913 0 4L0 6.66667C-2.88351e-06 7.72592 0.420143 8.74192 1.16827 9.4918C1.9164 10.2417 2.93142 10.6642 3.99067 10.6667L3.972 13.324C3.97077 13.4992 4.00409 13.6729 4.07004 13.8353C4.136 13.9976 4.2333 14.1453 4.35639 14.27C4.47947 14.3947 4.62593 14.4939 4.78738 14.562C4.94884 14.63 5.12212 14.6656 5.29733 14.6667H5.30533C5.65734 14.6667 5.99508 14.5275 6.24486 14.2794C6.49464 14.0314 6.6362 13.6947 6.63867 13.3427L6.65733 10.6667H6.66667C7.72753 10.6667 8.74495 10.2452 9.49509 9.49509C10.2452 8.74495 10.6667 7.72753 10.6667 6.66667V6.648L13.324 6.66667H13.3333C13.5084 6.66728 13.6819 6.6334 13.8439 6.56696C14.0059 6.50052 14.1533 6.40282 14.2775 6.27944C14.4018 6.15606 14.5005 6.00942 14.5681 5.84789C14.6356 5.68636 14.6707 5.5131 14.6713 5.338C14.6719 5.1629 14.6381 4.9894 14.5716 4.8274C14.5052 4.6654 14.4075 4.51807 14.2841 4.39382C14.1607 4.26958 14.0141 4.17085 13.8526 4.10328C13.691 4.03571 13.5178 4.00061 13.3427 4Z" fill="white"/>
<path d="M27.9995 0H25.3328C24.2735 -2.88351e-06 23.2575 0.420143 22.5077 1.16827C21.7578 1.9164 21.3353 2.93142 21.3328 3.99067L18.6741 3.972H18.6661C18.3125 3.97076 17.9729 4.11005 17.722 4.35922C17.471 4.6084 17.3294 4.94704 17.3281 5.30067C17.3269 5.65429 17.4662 5.99392 17.7154 6.24484C17.9645 6.49577 18.3032 6.63743 18.6568 6.63867L21.3328 6.65733V6.66667C21.3328 7.72753 21.7542 8.74495 22.5044 9.49509C23.2545 10.2452 24.2719 10.6667 25.3328 10.6667H25.3515L25.3328 13.324C25.3316 13.4991 25.3648 13.6727 25.4307 13.835C25.4966 13.9972 25.5938 14.1449 25.7167 14.2696C25.8397 14.3942 25.986 14.4935 26.1473 14.5616C26.3086 14.6297 26.4817 14.6654 26.6568 14.6667H26.6661C27.0181 14.6667 27.3559 14.5275 27.6057 14.2794C27.8554 14.0314 27.997 13.6947 27.9995 13.3427L28.0181 10.6667C29.0758 10.6617 30.0884 10.2381 30.8345 9.48851C31.5806 8.7389 31.9995 7.72431 31.9995 6.66667V4C31.9995 2.93913 31.578 1.92172 30.8279 1.17157C30.0777 0.421427 29.0603 0 27.9995 0Z" fill="white"/>
<path d="M28.0088 21.3333L28.0275 18.6746C28.0285 18.4995 27.9951 18.3259 27.929 18.1637C27.863 18.0016 27.7657 17.854 27.6426 17.7294C27.5195 17.6049 27.3731 17.5058 27.2118 17.4378C27.0504 17.3698 26.8772 17.3343 26.7021 17.3333H26.6941C26.3421 17.3332 26.0044 17.4724 25.7546 17.7205C25.5048 17.9685 25.3633 18.3052 25.3608 18.6573L25.3421 21.3333H25.3328C24.2719 21.3333 23.2545 21.7547 22.5044 22.5048C21.7542 23.255 21.3328 24.2724 21.3328 25.3333V25.3519L18.6755 25.3333H18.6661C18.3125 25.332 17.9729 25.4713 17.722 25.7205C17.471 25.9697 17.3294 26.3083 17.3281 26.6619C17.3269 27.0155 17.4662 27.3552 17.7154 27.6061C17.9645 27.857 18.3032 27.9987 18.6568 27.9999L21.3328 28.0186C21.3377 29.0762 21.7613 30.0888 22.511 30.835C23.2606 31.5811 24.2752 31.9999 25.3328 31.9999H27.9995C29.0603 31.9999 30.0777 31.5785 30.8279 30.8283C31.578 30.0782 31.9995 29.0608 31.9995 27.9999V25.3333C31.9995 24.274 31.5793 23.258 30.8312 22.5081C30.0831 21.7582 29.068 21.3357 28.0088 21.3333Z" fill="white"/>
<path d="M13.3427 25.3613L10.6667 25.3426V25.3333C10.6667 24.2724 10.2452 23.255 9.49509 22.5048C8.74495 21.7547 7.72753 21.3333 6.66667 21.3333H6.648L6.66667 18.6759C6.6679 18.5008 6.63463 18.3272 6.56875 18.165C6.50288 18.0027 6.4057 17.855 6.28275 17.7304C6.15981 17.6057 6.01351 17.5064 5.85221 17.4383C5.69091 17.3702 5.51776 17.3345 5.34267 17.3333H5.33333C4.98132 17.3332 4.64359 17.4724 4.39381 17.7205C4.14403 17.9685 4.00246 18.3052 4 18.6573L3.98133 21.3333C2.92371 21.3382 1.91108 21.7618 1.16497 22.5114C0.418853 23.261 -1.15163e-05 24.2756 2.37478e-10 25.3333L2.37479e-10 27.9999C2.3748e-10 29.0608 0.421427 30.0782 1.17157 30.8283C1.92172 31.5785 2.93913 31.9999 4 31.9999H6.66667C7.72592 31.9999 8.74192 31.5798 9.4918 30.8316C10.2417 30.0835 10.6642 29.0685 10.6667 28.0093L13.3253 28.0279H13.3333C13.687 28.0292 14.0266 27.8899 14.2775 27.6407C14.5284 27.3915 14.6701 27.0529 14.6713 26.6993C14.6726 26.3456 14.5333 26.006 14.2841 25.7551C14.0349 25.5042 13.6963 25.3625 13.3427 25.3613Z" fill="white"/>
</g>
<defs>
<clipPath id="clip0_4003_453">
<rect width="32" height="32" fill="white"/>
</clipPath>
</defs>
</svg>
