<svg width="32" height="32" viewBox="0 0 32 32" fill="none" xmlns="http://www.w3.org/2000/svg">
<g clip-path="url(#clip0_4003_492)">
<path fill-rule="evenodd" clip-rule="evenodd" d="M11.1539 0.120213C10.2843 0.398088 9.63204 1.10134 9.38398 2.02853C9.32198 2.26034 9.30023 2.89377 9.29966 4.48165L9.29891 6.62227H8.02917C6.63216 6.62227 6.18904 6.6784 5.67391 6.92046C5.17448 7.15521 4.61448 7.74134 4.40623 8.24728C4.2906 8.52815 3.58073 11.7973 2.10591 18.841C0.132539 28.266 -0.0248988 29.0636 0.00260123 29.4973C0.0742887 30.6281 0.787351 31.5457 1.84941 31.8737C2.24291 31.9952 2.47835 31.9973 15.9864 31.9973C29.4945 31.9973 29.7299 31.9952 30.1234 31.8737C31.1855 31.5457 31.8985 30.6281 31.9702 29.4973C31.9977 29.0639 31.8482 28.3041 29.9897 19.4348C27.5269 7.68165 27.7037 8.48146 27.4702 8.04084C27.1117 7.3644 26.3737 6.83603 25.5843 6.69059C25.3804 6.65303 24.642 6.62227 23.9437 6.62227H22.6739L22.6732 4.48165C22.6724 2.21252 22.6509 2.00221 22.3625 1.43477C22.0552 0.830025 21.4543 0.319588 20.8186 0.123275C20.4254 0.00183755 20.2507 -0.00259995 15.9642 0.000650046C11.807 0.00377505 11.494 0.0115875 11.1539 0.120213ZM19.9864 4.65352V6.62227H15.9864H11.9864V4.65352V2.68478H15.9864H19.9864V4.65352ZM21.9239 14.787C22.9924 15.007 23.8026 15.5963 24.205 16.4459C24.3242 16.6976 24.4388 16.9895 24.4595 17.0947L24.4972 17.2858L23.7262 17.4263C23.3022 17.5036 22.9096 17.5801 22.8539 17.5962C22.7809 17.6173 22.7059 17.5298 22.5848 17.2824C22.3759 16.8553 21.9569 16.4798 21.4956 16.306C21.1997 16.1945 21.0467 16.1775 20.5489 16.2003C19.812 16.2343 19.3613 16.3972 18.9289 16.786C17.7653 17.8321 17.752 20.6412 18.9053 21.7945C19.7499 22.6391 21.1869 22.6888 22.4708 21.9179L22.7989 21.7208V21.1091V20.4973H21.7657H20.7325L20.75 19.7629L20.7677 19.0285L22.6895 19.012L24.6114 18.9955V20.8276V22.6597L24.0959 22.9998C23.4601 23.4193 22.7209 23.7216 21.9315 23.885C21.2224 24.0318 20.0181 24.0135 19.3927 23.8463C18.2344 23.5366 17.2455 22.7507 16.7517 21.7473C16.3744 20.9808 16.2209 20.2727 16.2228 19.3095C16.2275 17.0585 17.2888 15.4459 19.1427 14.8732C19.9049 14.6377 21.0294 14.6028 21.9239 14.787ZM9.18873 16.7582L9.20516 18.8316L11.0802 16.7617L12.9552 14.6916L14.1969 14.6882L15.4385 14.6848L14.3531 15.8107C13.7561 16.43 12.976 17.2453 12.6196 17.6226L11.9715 18.3086L13.7915 21.1171C14.7924 22.6619 15.6114 23.9418 15.6114 23.9615C15.6114 23.9812 15.0841 23.9969 14.4395 23.9965L13.2677 23.9957L11.9949 21.809C11.2949 20.6063 10.7042 19.6227 10.6824 19.6232C10.6605 19.6238 10.3122 19.9731 9.90829 20.3995L9.17391 21.1747V22.586V23.9973H8.26766H7.36141V19.341V14.6848H8.26685H9.17223L9.18873 16.7582Z" fill="url(#paint0_linear_4003_492)"/>
</g>
<defs>
<linearGradient id="paint0_linear_4003_492" x1="0" y1="15.9986" x2="31.9729" y2="15.9986" gradientUnits="userSpaceOnUse">
<stop stop-color="#D0D0D0"/>
<stop offset="1" stop-color="#969696"/>
</linearGradient>
<clipPath id="clip0_4003_492">
<rect width="32" height="32" fill="white"/>
</clipPath>
</defs>
</svg>
