<svg preserveAspectRatio="none" width="100%" height="100%" overflow="visible" style="display: block;" viewBox="0 0 30.9924 23.2368" fill="none" xmlns="http://www.w3.org/2000/svg">
<g id="cross_icon">
<path id="quotation 1 (Traced)" fill-rule="evenodd" clip-rule="evenodd" d="M2.00772 0.112443C1.21964 0.363591 0.48418 1.0551 0.165885 1.84414L0.0235996 2.19677L0.00707032 7.13104C-0.0090957 11.9489 -0.00655273 12.0749 0.114057 12.4719C0.359635 13.2804 1.04593 14.0209 1.85066 14.3455C2.1959 14.4848 2.25112 14.4881 4.48893 14.5056C5.74601 14.5155 6.77458 14.5399 6.77458 14.5599C6.77458 14.5799 6.44762 16.2776 6.04801 18.3325C5.6484 20.3875 5.32145 22.1712 5.32145 22.2964C5.32145 22.6045 5.52943 22.9531 5.80607 23.1086C6.02488 23.2315 6.11153 23.2368 7.91582 23.2368C9.6939 23.2368 9.81657 23.2297 10.1459 23.1064C10.3841 23.0173 10.5909 22.8783 10.7991 22.6674C11.0936 22.3691 11.1541 22.2389 12.6292 18.7261C13.4683 16.728 14.1977 14.9236 14.2501 14.7163C14.5079 13.6972 14.5223 13.3314 14.5235 7.7583C14.5246 2.55841 14.5214 2.41117 14.4012 2.02209C14.1531 1.2187 13.4675 0.482142 12.6672 0.159367L12.3146 0.0170819L7.34977 0.00466964C2.5455 -0.00737919 2.3727 -0.00392809 2.00772 0.112443ZM18.4765 0.112443C17.6884 0.363591 16.9529 1.0551 16.6346 1.84414L16.4923 2.19677L16.4758 7.13104C16.4597 11.9489 16.4622 12.0749 16.5828 12.4719C16.8284 13.2804 17.5147 14.0209 18.3194 14.3455C18.6646 14.4848 18.7199 14.4881 20.9577 14.5056C22.2148 14.5155 23.2433 14.5399 23.2433 14.5599C23.2433 14.5799 22.9164 16.2776 22.5168 18.3325C22.1172 20.3875 21.7902 22.1712 21.7902 22.2964C21.7902 22.6045 21.9982 22.9531 22.2748 23.1086C22.4936 23.2315 22.5803 23.2368 24.3846 23.2368C26.1627 23.2368 26.2853 23.2297 26.6146 23.1064C26.8528 23.0173 27.0598 22.8783 27.2679 22.6674C27.5627 22.3689 27.6225 22.2403 29.0977 18.7261C29.9365 16.728 30.6658 14.9236 30.7185 14.7163C30.9766 13.7001 30.9911 13.3329 30.9922 7.7583C30.9933 2.55841 30.9902 2.41117 30.87 2.02209C30.6218 1.2187 29.9362 0.482142 29.136 0.159367L28.7834 0.0170819L23.8185 0.00466964C19.0142 -0.00737919 18.8414 -0.00392809 18.4765 0.112443Z" fill="var(--fill-0, #FFC23C)"/>
</g>
</svg>
