<svg width="32" height="32" viewBox="0 0 32 32" fill="none" xmlns="http://www.w3.org/2000/svg">
<g clip-path="url(#clip0_4003_479)">
<path fill-rule="evenodd" clip-rule="evenodd" d="M14 2.54638V5.09281L12.4374 3.53113L10.8747 1.96938L9.45319 3.39094L8.03169 4.81244L11.0158 7.79706L14 10.7817V12.3909V14H12.3909H10.7817L7.79706 11.0158L4.81244 8.03169L3.39094 9.45319L1.96938 10.8747L3.53113 12.4374L5.09281 14H2.54638H0V16V18H2.54638H5.09281L3.53113 19.5626L1.96938 21.1253L3.39094 22.5468L4.81244 23.9683L7.79706 20.9842L10.7817 18H12.3909H14V19.6091V21.2183L11.0158 24.2029L8.03169 27.1876L9.45319 28.6091L10.8747 30.0306L12.4374 28.4689L14 26.9072V29.4536V32H16H18V29.4536V26.9072L19.5626 28.4689L21.1253 30.0306L22.5468 28.6091L23.9683 27.1876L20.9842 24.2029L18 21.2183V19.6091V18H19.6091H21.2183L24.2029 20.9842L27.1876 23.9683L28.6091 22.5468L30.0306 21.1253L28.4689 19.5626L26.9072 18H29.4536H32V16V14H29.4536H26.9072L28.4689 12.4374L30.0306 10.8747L28.6091 9.45319L27.1876 8.03169L24.2029 11.0158L21.2183 14H19.6091H18V12.3909V10.7817L20.9842 7.79706L23.9683 4.81244L22.5468 3.39094L21.1253 1.96938L19.5626 3.53113L18 5.09281V2.54638V0H16H14V2.54638Z" fill="#33AAFF"/>
</g>
<defs>
<clipPath id="clip0_4003_479">
<rect width="32" height="32" fill="white"/>
</clipPath>
</defs>
</svg>
